<svg width="186" height="192" viewBox="0 0 186 192" fill="none" xmlns="http://www.w3.org/2000/svg">
<g opacity="0.15">
<path d="M12.5 231.324V193.824H51.25L19.375 89.4485C13.75 86.3235 9.11458 81.7402 5.46875 75.6985C1.82292 69.6569 0 63.1985 0 56.3235C0 45.9069 3.64583 37.0527 10.9375 29.761C18.2292 22.4694 27.0833 18.8235 37.5 18.8235C45.625 18.8235 52.8646 21.1673 59.2188 25.8548C65.5729 30.5423 70 36.5319 72.5 43.8235H112.5V31.3235C112.5 27.7819 113.698 24.8131 116.094 22.4173C118.49 20.0214 121.458 18.8235 125 18.8235C126.875 18.8235 128.698 19.2402 130.469 20.0735C132.24 20.9069 133.75 22.1569 135 23.8235L156.25 3.82353C158.125 1.94853 160.365 0.750613 162.969 0.229779C165.573 -0.291054 168.125 0.0735294 170.625 1.32353L219.375 23.8235C221.875 25.0735 223.594 26.8964 224.531 29.2923C225.469 31.6881 225.417 34.0319 224.375 36.3235C223.125 38.8235 221.302 40.4381 218.906 41.1673C216.51 41.8964 214.167 41.7402 211.875 40.6985L166.875 20.0735L137.5 47.5735V65.0735L166.875 91.9485L211.875 71.3235C214.167 70.2819 216.562 70.1777 219.062 71.011C221.562 71.8444 223.333 73.4069 224.375 75.6985C225.625 78.1985 225.729 80.5944 224.688 82.886C223.646 85.1777 221.875 86.9485 219.375 88.1985L170.625 111.324C168.125 112.574 165.573 112.938 162.969 112.417C160.365 111.896 158.125 110.699 156.25 108.824L135 88.8235C133.75 90.0735 132.24 91.2194 130.469 92.261C128.698 93.3027 126.875 93.8235 125 93.8235C121.458 93.8235 118.49 92.6256 116.094 90.2298C113.698 87.8339 112.5 84.8652 112.5 81.3235V68.8235H72.5C71.875 70.4902 71.1979 72.0527 70.4688 73.511C69.7396 74.9694 68.75 76.5319 67.5 78.1985L130 193.824H175V231.324H12.5ZM37.5 68.8235C41.0417 68.8235 44.0104 67.6256 46.4062 65.2298C48.8021 62.834 50 59.8652 50 56.3235C50 52.7819 48.8021 49.8131 46.4062 47.4173C44.0104 45.0214 41.0417 43.8235 37.5 43.8235C33.9583 43.8235 30.9896 45.0214 28.5938 47.4173C26.1979 49.8131 25 52.7819 25 56.3235C25 59.8652 26.1979 62.834 28.5938 65.2298C30.9896 67.6256 33.9583 68.8235 37.5 68.8235ZM76.875 193.824H101.25L47.5 93.8235C47.5 93.8235 47.2917 93.8235 46.875 93.8235C46.4583 93.8235 46.25 93.8235 46.25 93.8235L76.875 193.824Z" fill="#1C9BE0"/>
</g>
</svg>
