<svg width="20" height="33" viewBox="0 0 20 33" fill="none" xmlns="http://www.w3.org/2000/svg">
<path d="M0.454545 33L0 28.9667L5.18182 14.575C5.63636 15.0028 6.12879 15.3618 6.65909 15.6521C7.18939 15.9424 7.75758 16.1639 8.36364 16.3167L3.36364 30.1583L0.454545 33ZM19.5455 33L16.6364 30.1583L11.6364 16.3167C12.2424 16.1639 12.8106 15.9424 13.3409 15.6521C13.8712 15.3618 14.3636 15.0028 14.8182 14.575L20 28.9667L19.5455 33ZM10 14.6667C8.48485 14.6667 7.19697 14.1319 6.13636 13.0625C5.07576 11.9931 4.54545 10.6944 4.54545 9.16667C4.54545 7.975 4.88636 6.91319 5.56818 5.98125C6.25 5.04931 7.12121 4.4 8.18182 4.03333V0H11.8182V4.03333C12.8788 4.4 13.75 5.04931 14.4318 5.98125C15.1136 6.91319 15.4545 7.975 15.4545 9.16667C15.4545 10.6944 14.9242 11.9931 13.8636 13.0625C12.803 14.1319 11.5152 14.6667 10 14.6667ZM10 11C10.5152 11 10.947 10.8243 11.2955 10.4729C11.6439 10.1215 11.8182 9.68611 11.8182 9.16667C11.8182 8.64722 11.6439 8.21181 11.2955 7.86042C10.947 7.50903 10.5152 7.33333 10 7.33333C9.48485 7.33333 9.05303 7.50903 8.70455 7.86042C8.35606 8.21181 8.18182 8.64722 8.18182 9.16667C8.18182 9.68611 8.35606 10.1215 8.70455 10.4729C9.05303 10.8243 9.48485 11 10 11Z" fill="#008FDC" fill-opacity="0.9"/>
</svg>
