<svg width="1732" height="491" viewBox="0 0 1732 491" fill="none" xmlns="http://www.w3.org/2000/svg">
<mask id="mask0_1131_164" style="mask-type:luminance" maskUnits="userSpaceOnUse" x="0" y="0" width="1732" height="491">
<path d="M1732 0H0V490.667H1732V0Z" fill="white"/>
</mask>
<g mask="url(#mask0_1131_164)">
<path d="M460.625 316.615H618.026V489.287H460.625V316.615Z" fill="#008FDC"/>
<mask id="mask1_1131_164" style="mask-type:luminance" maskUnits="userSpaceOnUse" x="135" y="4" width="159" height="355">
<path d="M135.182 4H293.333V358.667H135.182V4Z" fill="white"/>
</mask>
<g mask="url(#mask1_1131_164)">
<path d="M292.734 193.484V5.32812H135.333V357.422C166.198 285.641 222.271 227.26 292.734 193.484Z" fill="#008FDC"/>
</g>
<mask id="mask2_1131_164" style="mask-type:luminance" maskUnits="userSpaceOnUse" x="135" y="1" width="485" height="485">
<path d="M135.182 1.36987H619.573V485.333H135.182V1.36987Z" fill="white"/>
</mask>
<g mask="url(#mask2_1131_164)">
<path d="M292.734 481.432L135.333 485.333C135.333 326.724 259.891 196.011 418.281 188.375L461.891 186.292V1.36987H619.292V288.604H489.516C382.365 288.604 294.932 374.281 292.734 481.432Z" fill="#008FDC"/>
</g>
<mask id="mask3_1131_164" style="mask-type:luminance" maskUnits="userSpaceOnUse" x="664" y="1" width="1068" height="330">
<path d="M664 1.3335H1731.68V330.667H664V1.3335Z" fill="white"/>
</mask>
<g mask="url(#mask3_1131_164)">
<mask id="mask4_1131_164" style="mask-type:luminance" maskUnits="userSpaceOnUse" x="664" y="1" width="1068" height="330">
<path d="M1732 1.3335H664V330.667H1732V1.3335Z" fill="white"/>
</mask>
<g mask="url(#mask4_1131_164)">
<path d="M679.771 45.1104H834.25V74.1937C822.427 85.0999 812.193 96.1051 803.542 107.215C794.901 118.313 787.636 129.517 781.75 140.819C775.86 152.11 771.11 163.522 767.5 175.048C763.901 186.563 761.209 198.194 759.417 209.944C757.636 221.683 756.552 233.527 756.167 245.485H709.459C710.427 233.918 711.959 222.438 714.042 211.048C716.125 199.662 718.959 188.355 722.542 177.131C726.136 165.897 730.625 154.756 736 143.715C741.386 132.673 747.855 121.715 755.396 110.84C762.938 99.9541 771.74 89.1676 781.813 78.4854H679.771V45.1104Z" fill="#23282E"/>
<path d="M1015 45.1104H1057.79V245.485H1015V162.11H903.793V245.485H860.793V45.1104H903.793V128.006H1015V45.1104Z" fill="#23282E"/>
<path d="M1095.09 245.485V45.1104H1138.03V245.485H1095.09Z" fill="#23282E"/>
<path d="M1218.25 210.985H1341.32V245.485H1175.32V45.1104H1218.25V210.985Z" fill="#23282E"/>
<path d="M1400.97 210.985H1524.04V245.485H1358.04V45.1104H1400.97V210.985Z" fill="#23282E"/>
<path d="M1630.32 248.131C1621 248.131 1612.09 247.699 1603.61 246.839C1595.12 245.975 1587.19 244.569 1579.82 242.61C1572.45 240.652 1565.74 238.006 1559.67 234.673C1553.6 231.329 1548.27 227.183 1543.67 222.235C1539.09 217.292 1535.35 211.412 1532.46 204.589C1529.59 197.772 1527.66 189.902 1526.69 180.985H1571.28C1571.86 186.876 1573.41 191.923 1575.94 196.131C1578.47 200.329 1581.71 203.798 1585.67 206.548C1589.63 209.287 1594.08 211.444 1599.03 213.027C1603.97 214.61 1609.18 215.735 1614.65 216.402C1620.12 217.058 1625.61 217.381 1631.11 217.381C1638.89 217.381 1646.08 216.792 1652.69 215.61C1659.32 214.417 1665.09 212.548 1670.03 210.006C1674.95 207.454 1678.78 204.11 1681.51 199.985C1684.23 195.85 1685.59 190.834 1685.59 184.944C1685.59 180.152 1684.7 176.209 1682.92 173.11C1681.14 170.001 1678.6 167.522 1675.3 165.673C1672.01 163.829 1668.04 162.454 1663.4 161.548C1658.76 160.647 1653.56 160.016 1647.8 159.652C1642.03 159.277 1635.83 159.001 1629.19 158.819C1624.4 158.683 1619.34 158.496 1614.03 158.256C1608.7 158.022 1603.28 157.626 1597.74 157.069C1592.19 156.516 1586.71 155.704 1581.3 154.631C1575.89 153.548 1570.72 152.11 1565.78 150.319C1560.83 148.516 1556.25 146.235 1552.03 143.485C1547.8 140.735 1544.13 137.417 1541.01 133.527C1537.88 129.626 1535.45 125.063 1533.71 119.839C1531.98 114.605 1531.11 108.579 1531.11 101.756C1531.11 93.105 1532.62 85.5008 1535.63 78.9435C1538.64 72.3914 1542.95 66.8081 1548.55 62.1935C1554.16 57.5685 1560.84 53.8081 1568.61 50.9019C1576.37 48.0008 1585.03 45.8706 1594.59 44.506C1604.16 43.1466 1614.37 42.4644 1625.24 42.4644C1645.41 42.4644 1662.69 44.6727 1677.07 49.0894C1691.45 53.506 1702.66 60.1831 1710.69 69.1102C1718.72 78.0425 1723.28 89.2769 1724.38 102.819H1681.63C1680.93 98.0269 1679.45 93.9123 1677.17 90.4644C1674.91 87.006 1672.02 84.105 1668.51 81.756C1664.99 79.3966 1660.98 77.5164 1656.46 76.1102C1651.96 74.6935 1647.08 73.6935 1641.82 73.1102C1636.57 72.5164 1631.11 72.2144 1625.44 72.2144C1619.72 72.2144 1614.28 72.5164 1609.11 73.1102C1603.94 73.6935 1599.21 74.6414 1594.92 75.9435C1590.64 77.2352 1586.93 78.9383 1583.78 81.0477C1580.64 83.1623 1578.2 85.7352 1576.46 88.7769C1574.73 91.8081 1573.86 95.3602 1573.86 99.4435C1573.86 104.027 1574.93 107.772 1577.09 110.673C1579.24 113.579 1582.3 115.855 1586.28 117.506C1590.26 119.147 1594.98 120.376 1600.42 121.194C1605.88 122.001 1611.89 122.589 1618.46 122.964C1625.05 123.339 1632.03 123.704 1639.42 124.048C1645.53 124.371 1651.68 124.792 1657.86 125.319C1664.04 125.85 1670.08 126.621 1675.99 127.631C1681.9 128.631 1687.53 130.027 1692.88 131.819C1698.23 133.6 1703.14 135.917 1707.63 138.777C1712.12 141.626 1716.01 145.141 1719.3 149.319C1722.59 153.501 1725.14 158.48 1726.94 164.256C1728.75 170.037 1729.65 176.772 1729.65 184.464C1729.65 194.272 1728.09 202.772 1724.96 209.964C1721.84 217.162 1717.36 223.209 1711.53 228.11C1705.7 233.016 1698.72 236.933 1690.57 239.86C1682.41 242.777 1673.26 244.881 1663.09 246.173C1652.93 247.475 1642.01 248.131 1630.32 248.131Z" fill="#23282E"/>
</g>
</g>
<mask id="mask5_1131_164" style="mask-type:luminance" maskUnits="userSpaceOnUse" x="666" y="326" width="1041" height="162">
<path d="M1706.67 326.667H666.667V488H1706.67V326.667Z" fill="white"/>
</mask>
<g mask="url(#mask5_1131_164)">
<path d="M680.207 359.223H715.124C720.358 359.223 725.129 359.921 729.436 361.306C733.739 362.681 737.421 364.635 740.478 367.161C743.546 369.692 745.9 372.78 747.541 376.431C749.192 380.072 750.02 384.197 750.02 388.806V389.077C750.02 394.135 749.041 398.551 747.082 402.327C745.134 406.109 742.499 409.286 739.166 411.869C735.832 414.442 731.942 416.369 727.499 417.661C723.067 418.942 718.358 419.577 713.374 419.577H690.728V452.494H680.207V359.223ZM713.791 409.994C717.608 409.994 721.093 409.51 724.249 408.536C727.4 407.551 730.108 406.15 732.374 404.327C734.634 402.51 736.364 400.359 737.561 397.869C738.754 395.385 739.353 392.588 739.353 389.473V389.202C739.353 382.551 737.067 377.515 732.499 374.098C727.926 370.671 721.864 368.952 714.311 368.952H690.728V409.994H713.791Z" fill="#23282E"/>
<path d="M762.672 359.223H830.089V368.827H773.193V400.661H824.089V410.265H773.193V442.911H830.756V452.494H762.672V359.223Z" fill="#23282E"/>
<path d="M845.404 359.223H885.112C890.445 359.223 895.175 359.963 899.3 361.431C903.425 362.905 906.82 364.926 909.487 367.494C913.487 371.676 915.487 376.65 915.487 382.411V382.681C915.487 385.697 915.06 388.385 914.216 390.744C913.367 393.093 912.237 395.135 910.82 396.869C909.404 398.609 907.826 400.072 906.091 401.265C904.352 402.463 902.555 403.463 900.695 404.265C903.445 405.072 906.039 406.119 908.487 407.411C910.93 408.692 913.039 410.218 914.82 411.994C916.597 413.775 918.013 415.885 919.07 418.327C920.138 420.775 920.675 423.593 920.675 426.786V427.056C920.675 431.046 919.873 434.614 918.279 437.765C916.68 440.921 914.393 443.588 911.425 445.765C908.451 447.947 904.873 449.614 900.695 450.765C896.513 451.921 891.893 452.494 886.841 452.494H845.404V359.223ZM904.82 383.89C904.82 379.265 903.039 375.577 899.487 372.827C895.945 370.077 890.841 368.702 884.175 368.702H855.8V400.806H883.383C889.768 400.806 894.935 399.411 898.883 396.619C902.841 393.817 904.82 389.655 904.82 384.14V383.89ZM910.029 426.119C910.029 421.051 907.935 417.119 903.758 414.327C899.591 411.525 893.414 410.119 885.237 410.119H855.8V443.036H887.112C894.206 443.036 899.8 441.572 903.883 438.64C907.977 435.713 910.029 431.629 910.029 426.39V426.119Z" fill="#23282E"/>
<path d="M1000.48 453.827C993.022 453.827 986.199 452.603 980.022 450.161C973.855 447.718 967.97 443.968 962.376 438.911L968.897 431.181C973.782 435.629 978.715 438.942 983.688 441.119C988.657 443.286 994.386 444.369 1000.88 444.369C1007.18 444.369 1012.22 442.885 1016 439.911C1019.78 436.926 1021.67 433.129 1021.67 428.515V428.244C1021.67 426.119 1021.3 424.192 1020.58 422.452C1019.88 420.718 1018.63 419.14 1016.86 417.723C1015.09 416.306 1012.63 415.025 1009.48 413.869C1006.32 412.702 1002.3 411.593 997.418 410.536C992.084 409.369 987.438 408.036 983.48 406.536C979.532 405.025 976.272 403.202 973.688 401.077C971.116 398.942 969.209 396.452 967.959 393.619C966.72 390.775 966.105 387.442 966.105 383.619V383.348C966.105 379.713 966.855 376.338 968.355 373.223C969.866 370.114 972.001 367.426 974.751 365.161C977.511 362.9 980.756 361.129 984.48 359.848C988.215 358.556 992.303 357.911 996.751 357.911C1003.58 357.911 1009.55 358.869 1014.67 360.786C1019.78 362.692 1024.73 365.551 1029.52 369.369L1023.4 377.494C1019.03 373.942 1014.65 371.364 1010.25 369.765C1005.86 368.171 1001.27 367.369 996.48 367.369C990.355 367.369 985.511 368.817 981.959 371.702C978.402 374.577 976.626 378.15 976.626 382.411V382.681C976.626 384.905 976.98 386.885 977.688 388.619C978.407 390.343 979.699 391.942 981.563 393.411C983.423 394.869 985.991 396.202 989.272 397.411C992.563 398.609 996.782 399.739 1001.94 400.806C1012.32 403.114 1019.99 406.306 1024.92 410.39C1029.84 414.473 1032.31 420.072 1032.31 427.181V427.452C1032.31 431.452 1031.51 435.072 1029.92 438.306C1028.32 441.546 1026.12 444.322 1023.31 446.64C1020.52 448.947 1017.17 450.723 1013.25 451.973C1009.34 453.208 1005.09 453.827 1000.48 453.827Z" fill="#23282E"/>
<path d="M1090.53 454.098C1083.43 454.098 1076.97 452.812 1071.15 450.244C1065.33 447.66 1060.33 444.176 1056.15 439.785C1051.99 435.384 1048.77 430.275 1046.51 424.452C1044.24 418.634 1043.11 412.53 1043.11 406.14V405.869C1043.11 399.468 1044.26 393.338 1046.57 387.473C1048.87 381.614 1052.12 376.489 1056.3 372.098C1060.48 367.697 1065.5 364.192 1071.36 361.577C1077.22 358.952 1083.7 357.64 1090.8 357.64C1097.91 357.64 1104.37 358.931 1110.19 361.515C1116.01 364.088 1121.01 367.572 1125.17 371.973C1129.35 376.364 1132.57 381.468 1134.84 387.285C1137.1 393.108 1138.24 399.213 1138.24 405.598V405.869C1138.24 412.259 1137.07 418.384 1134.76 424.244C1132.45 430.108 1129.2 435.239 1125.03 439.64C1120.86 444.03 1115.85 447.535 1109.99 450.16C1104.12 452.785 1097.64 454.098 1090.53 454.098ZM1090.8 444.369C1096.13 444.369 1101.04 443.369 1105.53 441.369C1110.01 439.369 1113.85 436.64 1117.05 433.181C1120.24 429.713 1122.75 425.671 1124.57 421.056C1126.4 416.431 1127.32 411.463 1127.32 406.14V405.869C1127.32 400.535 1126.4 395.546 1124.57 390.89C1122.75 386.223 1120.19 382.16 1116.9 378.702C1113.62 375.233 1109.74 372.473 1105.26 370.431C1100.77 368.39 1095.86 367.369 1090.53 367.369C1085.2 367.369 1080.3 368.369 1075.82 370.369C1071.33 372.358 1067.49 375.088 1064.28 378.556C1061.08 382.015 1058.57 386.056 1056.76 390.681C1054.93 395.296 1054.03 400.265 1054.03 405.598V405.869C1054.03 411.192 1054.93 416.181 1056.76 420.848C1058.57 425.515 1061.13 429.588 1064.42 433.056C1067.72 436.515 1071.6 439.265 1076.09 441.306C1080.57 443.348 1085.48 444.369 1090.8 444.369Z" fill="#23282E"/>
<path d="M1153.95 359.223H1164.47V442.765H1216.97V452.494H1153.95V359.223Z" fill="#23282E"/>
<path d="M1264.53 453.952C1258.75 453.952 1253.49 453.088 1248.74 451.369C1243.99 449.635 1239.9 447.056 1236.47 443.64C1233.05 440.223 1230.41 435.984 1228.55 430.911C1226.69 425.843 1225.76 420.025 1225.76 413.452V359.223H1236.28V412.786C1236.28 422.911 1238.79 430.692 1243.8 436.119C1248.83 441.536 1255.82 444.244 1264.78 444.244C1273.41 444.244 1280.25 441.671 1285.3 436.515C1290.37 431.364 1292.91 423.676 1292.91 413.452V359.223H1303.43V412.661C1303.43 419.494 1302.49 425.489 1300.62 430.64C1298.75 435.796 1296.12 440.109 1292.7 443.577C1289.28 447.036 1285.2 449.635 1280.45 451.369C1275.7 453.088 1270.39 453.952 1264.53 453.952Z" fill="#23282E"/>
<path d="M1346.06 368.952H1314.62V359.223H1388.02V368.952H1356.58V452.494H1346.06V368.952Z" fill="#23282E"/>
<path d="M1401.61 359.223H1412.13V452.494H1401.61V359.223Z" fill="#23282E"/>
<path d="M1476.21 454.098C1469.11 454.098 1462.65 452.812 1456.83 450.244C1451.01 447.66 1446.01 444.176 1441.83 439.785C1437.67 435.384 1434.45 430.275 1432.19 424.452C1429.92 418.634 1428.79 412.53 1428.79 406.14V405.869C1428.79 399.468 1429.94 393.338 1432.25 387.473C1434.55 381.614 1437.8 376.489 1441.98 372.098C1446.16 367.697 1451.18 364.192 1457.04 361.577C1462.9 358.952 1469.38 357.64 1476.48 357.64C1483.59 357.64 1490.05 358.931 1495.87 361.515C1501.69 364.088 1506.69 367.572 1510.85 371.973C1515.03 376.364 1518.25 381.468 1520.52 387.285C1522.78 393.108 1523.92 399.213 1523.92 405.598V405.869C1523.92 412.259 1522.75 418.384 1520.44 424.244C1518.13 430.108 1514.88 435.239 1510.71 439.64C1506.54 444.03 1501.52 447.535 1495.67 450.16C1489.8 452.785 1483.32 454.098 1476.21 454.098ZM1476.48 444.369C1481.81 444.369 1486.72 443.369 1491.21 441.369C1495.69 439.369 1499.53 436.64 1502.73 433.181C1505.92 429.713 1508.43 425.671 1510.25 421.056C1512.08 416.431 1513 411.463 1513 406.14V405.869C1513 400.535 1512.08 395.546 1510.25 390.89C1508.43 386.223 1505.87 382.16 1502.58 378.702C1499.3 375.233 1495.42 372.473 1490.94 370.431C1486.45 368.39 1481.54 367.369 1476.21 367.369C1470.88 367.369 1465.98 368.369 1461.5 370.369C1457.01 372.358 1453.17 375.088 1449.96 378.556C1446.76 382.015 1444.25 386.056 1442.44 390.681C1440.61 395.296 1439.71 400.265 1439.71 405.598V405.869C1439.71 411.192 1440.61 416.181 1442.44 420.848C1444.25 425.515 1446.81 429.588 1450.1 433.056C1453.39 436.515 1457.28 439.265 1461.77 441.306C1466.25 443.348 1471.16 444.369 1476.48 444.369Z" fill="#23282E"/>
<path d="M1539.63 359.223H1549.48L1608.25 433.973V359.223H1618.5V452.494H1610.11L1549.9 376.015V452.494H1539.63V359.223Z" fill="#23282E"/>
<path d="M1670.33 453.827C1662.87 453.827 1656.04 452.603 1649.87 450.161C1643.7 447.718 1637.81 443.968 1632.22 438.911L1638.74 431.181C1643.63 435.629 1648.56 438.942 1653.53 441.119C1658.5 443.286 1664.23 444.369 1670.72 444.369C1677.02 444.369 1682.06 442.885 1685.85 439.911C1689.62 436.926 1691.51 433.129 1691.51 428.515V428.244C1691.51 426.119 1691.15 424.192 1690.43 422.452C1689.72 420.718 1688.48 419.14 1686.7 417.723C1684.93 416.306 1682.48 415.025 1679.33 413.869C1676.17 412.702 1672.15 411.593 1667.26 410.536C1661.93 409.369 1657.28 408.036 1653.33 406.536C1649.38 405.025 1646.12 403.202 1643.53 401.077C1640.96 398.942 1639.05 396.452 1637.8 393.619C1636.56 390.775 1635.95 387.442 1635.95 383.619V383.348C1635.95 379.713 1636.7 376.338 1638.2 373.223C1639.71 370.114 1641.85 367.426 1644.6 365.161C1647.36 362.9 1650.6 361.129 1654.33 359.848C1658.06 358.556 1662.15 357.911 1666.6 357.911C1673.43 357.911 1679.4 358.869 1684.51 360.786C1689.62 362.692 1694.58 365.551 1699.37 369.369L1693.24 377.494C1688.88 373.942 1684.5 371.364 1680.1 369.765C1675.71 368.171 1671.12 367.369 1666.33 367.369C1660.2 367.369 1655.36 368.817 1651.8 371.702C1648.25 374.577 1646.47 378.15 1646.47 382.411V382.681C1646.47 384.905 1646.83 386.885 1647.53 388.619C1648.25 390.343 1649.54 391.942 1651.41 393.411C1653.27 394.869 1655.84 396.202 1659.12 397.411C1662.41 398.609 1666.63 399.739 1671.78 400.806C1682.17 403.114 1689.83 406.306 1694.76 410.39C1699.69 414.473 1702.16 420.072 1702.16 427.181V427.452C1702.16 431.452 1701.36 435.072 1699.76 438.306C1698.16 441.546 1695.96 444.322 1693.16 446.64C1690.37 448.947 1687.01 450.723 1683.1 451.973C1679.19 453.208 1674.93 453.827 1670.33 453.827Z" fill="#23282E"/>
</g>
<mask id="mask6_1131_164" style="mask-type:luminance" maskUnits="userSpaceOnUse" x="0" y="5" width="161" height="122">
<path d="M0.817627 5.36987H160.161V126.886H0.817627V5.36987Z" fill="white"/>
</mask>
<g mask="url(#mask6_1131_164)">
<mask id="mask7_1131_164" style="mask-type:luminance" maskUnits="userSpaceOnUse" x="0" y="5" width="162" height="124">
<path d="M161.333 5.3335H0V128H161.333V5.3335Z" fill="white"/>
</mask>
<g mask="url(#mask7_1131_164)">
<mask id="mask8_1131_164" style="mask-type:luminance" maskUnits="userSpaceOnUse" x="0" y="5" width="161" height="122">
<path d="M0.817627 5.36987H160.161V126.886H0.817627V5.36987Z" fill="white"/>
</mask>
<g mask="url(#mask8_1131_164)">
<path d="M0.817627 5.36987H160.302V126.886H0.817627V5.36987Z" fill="#008FDC"/>
</g>
</g>
</g>
</g>
</svg>
