<svg width="1660" height="488" viewBox="0 0 1660 488" fill="none" xmlns="http://www.w3.org/2000/svg">
<g clip-path="url(#clip0_27_2)">
<path d="M390.292 315.245H547.693V487.917H390.292V315.245Z" fill="#008FDC"/>
<path d="M225 189.037V2H68V352C98.7864 280.646 154.717 222.612 225 189.037Z" fill="#008FDC"/>
<path d="M222.401 480.062L65 483.963C65 325.354 189.558 194.641 347.948 187.005L391.558 184.922V0H548.959V287.234H419.183C312.032 287.234 224.599 372.911 222.401 480.062Z" fill="#008FDC"/>
<path d="M0 1.62891H26.023V91.6289H0V1.62891Z" fill="#008FDC"/>
<path d="M610.087 43.7422H764.566V72.8255C752.743 83.7317 742.509 94.7369 733.858 105.847C725.217 116.945 717.952 128.149 712.066 139.451C706.176 150.742 701.426 162.154 697.816 173.68C694.217 185.195 691.525 196.826 689.733 208.576C687.952 220.315 686.868 232.159 686.483 244.117H639.775C640.743 232.55 642.275 221.07 644.358 209.68C646.441 198.294 649.275 186.987 652.858 175.763C656.452 164.529 660.941 153.388 666.316 142.347C671.702 131.305 678.171 120.347 685.712 109.472C693.254 98.5859 702.056 87.7994 712.129 77.1172H610.087V43.7422Z" fill="white"/>
<path d="M945.316 43.7422H988.106V244.117H945.316V160.742H834.109V244.117H791.109V43.7422H834.109V126.638H945.316V43.7422Z" fill="white"/>
<path d="M1025.41 244.117V43.7422H1068.35V244.117H1025.41Z" fill="white"/>
<path d="M1148.57 209.617H1271.64V244.117H1105.64V43.7422H1148.57V209.617Z" fill="white"/>
<path d="M1331.29 209.617H1454.36V244.117H1288.36V43.7422H1331.29V209.617Z" fill="white"/>
<path d="M1560.64 246.76C1551.32 246.76 1542.41 246.328 1533.93 245.468C1525.44 244.604 1517.51 243.198 1510.14 241.239C1502.77 239.281 1496.06 236.635 1489.99 233.302C1483.92 229.958 1478.59 225.812 1473.99 220.864C1469.41 215.921 1465.67 210.041 1462.78 203.218C1459.91 196.401 1457.98 188.531 1457.01 179.614H1501.6C1502.18 185.505 1503.73 190.552 1506.26 194.76C1508.79 198.958 1512.03 202.427 1515.99 205.177C1519.95 207.916 1524.4 210.073 1529.35 211.656C1534.29 213.239 1539.5 214.364 1544.97 215.031C1550.44 215.687 1555.93 216.01 1561.43 216.01C1569.21 216.01 1576.4 215.421 1583.01 214.239C1589.64 213.046 1595.41 211.177 1600.35 208.635C1605.27 206.083 1609.1 202.739 1611.83 198.614C1614.55 194.479 1615.91 189.463 1615.91 183.573C1615.91 178.781 1615.02 174.838 1613.24 171.739C1611.46 168.63 1608.92 166.151 1605.62 164.302C1602.33 162.458 1598.36 161.083 1593.72 160.177C1589.08 159.276 1583.88 158.645 1578.12 158.281C1572.35 157.906 1566.15 157.63 1559.51 157.448C1554.72 157.312 1549.66 157.125 1544.35 156.885C1539.02 156.651 1533.6 156.255 1528.06 155.698C1522.51 155.145 1517.03 154.333 1511.62 153.26C1506.21 152.177 1501.04 150.739 1496.1 148.948C1491.15 147.145 1486.57 144.864 1482.35 142.114C1478.12 139.364 1474.45 136.046 1471.33 132.156C1468.2 128.255 1465.77 123.692 1464.03 118.468C1462.3 113.234 1461.43 107.208 1461.43 100.385C1461.43 91.7343 1462.94 84.1301 1465.95 77.5728C1468.96 71.0206 1473.27 65.4374 1478.87 60.8228C1484.48 56.1978 1491.16 52.4374 1498.93 49.5312C1506.69 46.6302 1515.35 44.4999 1524.91 43.1353C1534.48 41.7759 1544.69 41.0938 1555.56 41.0938C1575.73 41.0938 1593.01 43.3021 1607.39 47.7188C1621.77 52.1354 1632.98 58.8124 1641.01 67.7395C1649.04 76.6718 1653.6 87.9061 1654.7 101.448H1611.95C1611.25 96.6561 1609.77 92.5417 1607.49 89.0938C1605.23 85.6353 1602.34 82.7343 1598.83 80.3853C1595.31 78.0259 1591.3 76.1457 1586.78 74.7395C1582.28 73.3228 1577.4 72.3228 1572.14 71.7395C1566.89 71.1457 1561.43 70.8438 1555.76 70.8438C1550.04 70.8438 1544.6 71.1457 1539.43 71.7395C1534.26 72.3228 1529.53 73.2707 1525.24 74.5728C1520.96 75.8645 1517.25 77.5676 1514.1 79.677C1510.96 81.7916 1508.52 84.3645 1506.78 87.4061C1505.05 90.4373 1504.18 93.9894 1504.18 98.0728C1504.18 102.656 1505.25 106.401 1507.41 109.302C1509.56 112.208 1512.62 114.484 1516.6 116.135C1520.58 117.776 1525.3 119.005 1530.74 119.823C1536.2 120.63 1542.21 121.218 1548.78 121.593C1555.37 121.968 1562.35 122.333 1569.74 122.677C1575.85 123 1582 123.421 1588.18 123.948C1594.36 124.479 1600.4 125.25 1606.31 126.26C1612.22 127.26 1617.85 128.656 1623.2 130.448C1628.55 132.229 1633.46 134.546 1637.95 137.406C1642.44 140.255 1646.33 143.77 1649.62 147.948C1652.91 152.13 1655.46 157.109 1657.26 162.885C1659.07 168.666 1659.97 175.401 1659.97 183.093C1659.97 192.901 1658.41 201.401 1655.28 208.593C1652.16 215.791 1647.68 221.838 1641.85 226.739C1636.02 231.645 1629.04 235.562 1620.89 238.489C1612.73 241.406 1603.58 243.51 1593.41 244.802C1583.25 246.104 1572.33 246.76 1560.64 246.76Z" fill="white"/>
<path d="M610.523 357.854H645.44C650.674 357.854 655.445 358.552 659.752 359.937C664.055 361.312 667.737 363.266 670.794 365.792C673.862 368.323 676.216 371.411 677.857 375.062C679.508 378.703 680.336 382.828 680.336 387.437V387.708C680.336 392.766 679.357 397.182 677.398 400.958C675.45 404.74 672.815 407.917 669.482 410.5C666.148 413.073 662.258 415 657.815 416.292C653.383 417.573 648.674 418.208 643.69 418.208H621.044V451.125H610.523V357.854ZM644.107 408.625C647.924 408.625 651.409 408.141 654.565 407.167C657.716 406.182 660.424 404.781 662.69 402.958C664.95 401.141 666.68 398.99 667.877 396.5C669.07 394.016 669.669 391.219 669.669 388.104V387.833C669.669 381.182 667.383 376.146 662.815 372.729C658.242 369.302 652.18 367.583 644.627 367.583H621.044V408.625H644.107Z" fill="white"/>
<path d="M692.988 357.854H760.405V367.458H703.509V399.292H754.405V408.896H703.509V441.542H761.072V451.125H692.988V357.854Z" fill="white"/>
<path d="M775.72 357.854H815.428C820.761 357.854 825.491 358.594 829.616 360.062C833.741 361.536 837.136 363.557 839.803 366.125C843.803 370.307 845.803 375.281 845.803 381.042V381.312C845.803 384.328 845.376 387.016 844.532 389.375C843.683 391.724 842.553 393.766 841.136 395.5C839.72 397.24 838.142 398.703 836.407 399.896C834.668 401.094 832.871 402.094 831.011 402.896C833.761 403.703 836.355 404.75 838.803 406.042C841.246 407.323 843.355 408.849 845.136 410.625C846.913 412.406 848.329 414.516 849.386 416.958C850.454 419.406 850.991 422.224 850.991 425.417V425.687C850.991 429.677 850.189 433.245 848.595 436.396C846.996 439.552 844.709 442.219 841.741 444.396C838.767 446.578 835.189 448.245 831.011 449.396C826.829 450.552 822.209 451.125 817.157 451.125H775.72V357.854ZM835.136 382.521C835.136 377.896 833.355 374.208 829.803 371.458C826.261 368.708 821.157 367.333 814.491 367.333H786.116V399.437H813.699C820.084 399.437 825.251 398.042 829.199 395.25C833.157 392.448 835.136 388.286 835.136 382.771V382.521ZM840.345 424.75C840.345 419.682 838.251 415.75 834.074 412.958C829.907 410.156 823.73 408.75 815.553 408.75H786.116V441.667H817.428C824.522 441.667 830.116 440.203 834.199 437.271C838.293 434.344 840.345 430.26 840.345 425.021V424.75Z" fill="white"/>
<path d="M930.796 452.458C923.338 452.458 916.515 451.234 910.338 448.792C904.171 446.349 898.286 442.599 892.692 437.542L899.213 429.812C904.098 434.26 909.031 437.573 914.004 439.75C918.973 441.917 924.702 443 931.196 443C937.496 443 942.536 441.516 946.316 438.542C950.096 435.557 951.986 431.76 951.986 427.146V426.875C951.986 424.75 951.616 422.823 950.896 421.083C950.196 419.349 948.946 417.771 947.176 416.354C945.406 414.937 942.946 413.656 939.796 412.5C936.636 411.333 932.616 410.224 927.734 409.167C922.4 408 917.754 406.667 913.796 405.167C909.848 403.656 906.588 401.833 904.004 399.708C901.432 397.573 899.525 395.083 898.275 392.25C897.036 389.406 896.421 386.073 896.421 382.25V381.979C896.421 378.344 897.171 374.969 898.671 371.854C900.182 368.745 902.317 366.057 905.067 363.792C907.827 361.531 911.072 359.76 914.796 358.479C918.531 357.187 922.619 356.542 927.067 356.542C933.896 356.542 939.866 357.5 944.986 359.417C950.096 361.323 955.046 364.182 959.836 368L953.716 376.125C949.346 372.573 944.966 369.995 940.566 368.396C936.176 366.802 931.586 366 926.796 366C920.671 366 915.827 367.448 912.275 370.333C908.718 373.208 906.942 376.781 906.942 381.042V381.312C906.942 383.536 907.296 385.516 908.004 387.25C908.723 388.974 910.015 390.573 911.879 392.042C913.739 393.5 916.307 394.833 919.588 396.042C922.879 397.24 927.098 398.37 932.256 399.437C942.636 401.745 950.306 404.937 955.236 409.021C960.156 413.104 962.626 418.703 962.626 425.812V426.083C962.626 430.083 961.826 433.703 960.236 436.937C958.636 440.177 956.436 442.953 953.626 445.271C950.836 447.578 947.486 449.354 943.566 450.604C939.656 451.839 935.406 452.458 930.796 452.458Z" fill="white"/>
<path d="M1020.85 452.728C1013.75 452.728 1007.29 451.442 1001.47 448.874C995.646 446.29 990.646 442.806 986.466 438.415C982.306 434.014 979.086 428.905 976.826 423.082C974.556 417.264 973.426 411.161 973.426 404.771V404.499C973.426 398.098 974.576 391.968 976.886 386.103C979.186 380.244 982.436 375.119 986.616 370.728C990.796 366.327 995.816 362.822 1001.68 360.207C1007.54 357.582 1014.02 356.271 1021.12 356.271C1028.23 356.271 1034.69 357.562 1040.51 360.146C1046.33 362.719 1051.33 366.202 1055.49 370.603C1059.67 374.994 1062.89 380.098 1065.16 385.915C1067.42 391.738 1068.56 397.843 1068.56 404.228V404.499C1068.56 410.889 1067.39 417.014 1065.08 422.874C1062.77 428.738 1059.52 433.87 1055.35 438.271C1051.18 442.661 1046.17 446.165 1040.31 448.79C1034.44 451.415 1027.96 452.728 1020.85 452.728ZM1021.12 442.999C1026.45 442.999 1031.36 441.999 1035.85 439.999C1040.33 437.999 1044.17 435.27 1047.37 431.811C1050.56 428.343 1053.07 424.301 1054.89 419.686C1056.72 415.061 1057.64 410.094 1057.64 404.771V404.499C1057.64 399.165 1056.72 394.177 1054.89 389.521C1053.07 384.854 1050.51 380.79 1047.22 377.332C1043.94 373.863 1040.06 371.103 1035.58 369.061C1031.09 367.02 1026.18 365.999 1020.85 365.999C1015.52 365.999 1010.62 366.999 1006.14 368.999C1001.65 370.988 997.806 373.718 994.596 377.186C991.396 380.645 988.886 384.686 987.076 389.311C985.246 393.926 984.346 398.895 984.346 404.228V404.499C984.346 409.822 985.246 414.811 987.076 419.478C988.886 424.145 991.446 428.218 994.736 431.686C998.036 435.145 1001.92 437.895 1006.41 439.936C1010.89 441.978 1015.8 442.999 1021.12 442.999Z" fill="white"/>
<path d="M1084.27 357.854H1094.79V441.396H1147.29V451.125H1084.27V357.854Z" fill="white"/>
<path d="M1194.85 452.583C1189.07 452.583 1183.81 451.719 1179.06 450C1174.31 448.266 1170.22 445.687 1166.79 442.271C1163.37 438.854 1160.73 434.615 1158.87 429.542C1157.01 424.474 1156.08 418.656 1156.08 412.083V357.854H1166.6V411.417C1166.6 421.542 1169.11 429.323 1174.12 434.75C1179.15 440.167 1186.14 442.875 1195.1 442.875C1203.73 442.875 1210.57 440.302 1215.62 435.146C1220.69 429.995 1223.23 422.307 1223.23 412.083V357.854H1233.75V411.292C1233.75 418.125 1232.81 424.12 1230.94 429.271C1229.07 434.427 1226.44 438.74 1223.02 442.208C1219.6 445.667 1215.52 448.266 1210.77 450C1206.02 451.719 1200.71 452.583 1194.85 452.583Z" fill="white"/>
<path d="M1276.38 367.583H1244.94V357.854H1318.34V367.583H1286.9V451.125H1276.38V367.583Z" fill="white"/>
<path d="M1331.93 357.854H1342.45V451.125H1331.93V357.854Z" fill="white"/>
<path d="M1406.53 452.728C1399.43 452.728 1392.97 451.442 1387.15 448.874C1381.33 446.29 1376.33 442.806 1372.15 438.415C1367.99 434.014 1364.77 428.905 1362.51 423.082C1360.24 417.264 1359.11 411.161 1359.11 404.771V404.499C1359.11 398.098 1360.26 391.968 1362.57 386.103C1364.87 380.244 1368.12 375.119 1372.3 370.728C1376.48 366.327 1381.5 362.822 1387.36 360.207C1393.22 357.582 1399.7 356.271 1406.8 356.271C1413.91 356.271 1420.37 357.562 1426.19 360.146C1432.01 362.719 1437.01 366.202 1441.17 370.603C1445.35 374.994 1448.57 380.098 1450.84 385.915C1453.1 391.738 1454.24 397.843 1454.24 404.228V404.499C1454.24 410.889 1453.07 417.014 1450.76 422.874C1448.45 428.738 1445.2 433.87 1441.03 438.271C1436.86 442.661 1431.84 446.165 1425.99 448.79C1420.12 451.415 1413.64 452.728 1406.53 452.728ZM1406.8 442.999C1412.13 442.999 1417.04 441.999 1421.53 439.999C1426.01 437.999 1429.85 435.27 1433.05 431.811C1436.24 428.343 1438.75 424.301 1440.57 419.686C1442.4 415.061 1443.32 410.094 1443.32 404.771V404.499C1443.32 399.165 1442.4 394.177 1440.57 389.521C1438.75 384.854 1436.19 380.79 1432.9 377.332C1429.62 373.863 1425.74 371.103 1421.26 369.061C1416.77 367.02 1411.86 365.999 1406.53 365.999C1401.2 365.999 1396.3 366.999 1391.82 368.999C1387.33 370.988 1383.49 373.718 1380.28 377.186C1377.08 380.645 1374.57 384.686 1372.76 389.311C1370.93 393.926 1370.03 398.895 1370.03 404.228V404.499C1370.03 409.822 1370.93 414.811 1372.76 419.478C1374.57 424.145 1377.13 428.218 1380.42 431.686C1383.71 435.145 1387.6 437.895 1392.09 439.936C1396.57 441.978 1401.48 442.999 1406.8 442.999Z" fill="white"/>
<path d="M1469.95 357.854H1479.8L1538.57 432.604V357.854H1548.82V451.125H1540.43L1480.22 374.646V451.125H1469.95V357.854Z" fill="white"/>
<path d="M1600.65 452.458C1593.19 452.458 1586.36 451.234 1580.19 448.792C1574.02 446.349 1568.13 442.599 1562.54 437.542L1569.06 429.812C1573.95 434.26 1578.88 437.573 1583.85 439.75C1588.82 441.917 1594.55 443 1601.04 443C1607.34 443 1612.38 441.516 1616.17 438.542C1619.94 435.557 1621.83 431.76 1621.83 427.146V426.875C1621.83 424.75 1621.47 422.823 1620.75 421.083C1620.04 419.349 1618.8 417.771 1617.02 416.354C1615.25 414.937 1612.8 413.656 1609.65 412.5C1606.49 411.333 1602.47 410.224 1597.58 409.167C1592.25 408 1587.6 406.667 1583.65 405.167C1579.7 403.656 1576.44 401.833 1573.85 399.708C1571.28 397.573 1569.37 395.083 1568.12 392.25C1566.88 389.406 1566.27 386.073 1566.27 382.25V381.979C1566.27 378.344 1567.02 374.969 1568.52 371.854C1570.03 368.745 1572.17 366.057 1574.92 363.792C1577.68 361.531 1580.92 359.76 1584.65 358.479C1588.38 357.187 1592.47 356.542 1596.92 356.542C1603.75 356.542 1609.72 357.5 1614.83 359.417C1619.94 361.323 1624.9 364.182 1629.69 368L1623.56 376.125C1619.2 372.573 1614.82 369.995 1610.42 368.396C1606.03 366.802 1601.44 366 1596.65 366C1590.52 366 1585.68 367.448 1582.12 370.333C1578.57 373.208 1576.79 376.781 1576.79 381.042V381.312C1576.79 383.536 1577.15 385.516 1577.85 387.25C1578.57 388.974 1579.86 390.573 1581.73 392.042C1583.59 393.5 1586.16 394.833 1589.44 396.042C1592.73 397.24 1596.95 398.37 1602.1 399.437C1612.49 401.745 1620.15 404.937 1625.08 409.021C1630.01 413.104 1632.48 418.703 1632.48 425.812V426.083C1632.48 430.083 1631.68 433.703 1630.08 436.937C1628.48 440.177 1626.28 442.953 1623.48 445.271C1620.69 447.578 1617.33 449.354 1613.42 450.604C1609.51 451.839 1605.25 452.458 1600.65 452.458Z" fill="white"/>
<path d="M32.9995 1.62891H59.0225V91.6289H32.9995V1.62891Z" fill="#008FDC"/>
</g>
<defs>
<clipPath id="clip0_27_2">
<rect width="1660" height="488" fill="white"/>
</clipPath>
</defs>
</svg>
