<svg width="1732" height="491" viewBox="0 0 1732 491" fill="none" xmlns="http://www.w3.org/2000/svg">
<mask id="mask0_316_4491" style="mask-type:luminance" maskUnits="userSpaceOnUse" x="0" y="0" width="1732" height="491">
<path d="M1732 0H0V490.667H1732V0Z" fill="white"/>
</mask>
<g mask="url(#mask0_316_4491)">
<path d="M460.625 316.615H618.026V489.287H460.625V316.615Z" fill="#008FDC"/>
<mask id="mask1_316_4491" style="mask-type:luminance" maskUnits="userSpaceOnUse" x="135" y="4" width="159" height="355">
<path d="M135.18 4H293.331V358.667H135.18V4Z" fill="white"/>
</mask>
<g mask="url(#mask1_316_4491)">
<path d="M292.733 193.484V5.32812H135.332V357.422C166.197 285.641 222.27 227.26 292.733 193.484Z" fill="#008FDC"/>
</g>
<mask id="mask2_316_4491" style="mask-type:luminance" maskUnits="userSpaceOnUse" x="135" y="1" width="485" height="485">
<path d="M135.18 1.36987H619.57V485.333H135.18V1.36987Z" fill="white"/>
</mask>
<g mask="url(#mask2_316_4491)">
<path d="M292.733 481.432L135.332 485.333C135.332 326.724 259.889 196.011 418.28 188.375L461.889 186.292V1.36987H619.29V288.604H489.514C382.363 288.604 294.931 374.281 292.733 481.432Z" fill="#008FDC"/>
</g>
<mask id="mask3_316_4491" style="mask-type:luminance" maskUnits="userSpaceOnUse" x="664" y="1" width="1068" height="330">
<path d="M664 1.3335H1731.68V330.667H664V1.3335Z" fill="white"/>
</mask>
<g mask="url(#mask3_316_4491)">
<mask id="mask4_316_4491" style="mask-type:luminance" maskUnits="userSpaceOnUse" x="664" y="1" width="1068" height="330">
<path d="M1732 1.3335H664V330.667H1732V1.3335Z" fill="white"/>
</mask>
<g mask="url(#mask4_316_4491)">
<path d="M679.77 45.1104H834.249V74.1937C822.426 85.0999 812.191 96.1051 803.54 107.215C794.9 118.313 787.634 129.517 781.749 140.819C775.858 152.11 771.108 163.522 767.499 175.048C763.9 186.563 761.207 198.194 759.415 209.944C757.634 221.683 756.551 233.527 756.165 245.485H709.457C710.426 233.918 711.957 222.438 714.04 211.048C716.124 199.662 718.957 188.355 722.54 177.131C726.134 165.897 730.624 154.756 735.999 143.715C741.384 132.673 747.853 121.715 755.395 110.84C762.936 99.9541 771.738 89.1676 781.811 78.4854H679.77V45.1104Z" fill="white"/>
<path d="M1015 45.1104H1057.79V245.485H1015V162.11H903.793V245.485H860.793V45.1104H903.793V128.006H1015V45.1104Z" fill="white"/>
<path d="M1095.09 245.485V45.1104H1138.03V245.485H1095.09Z" fill="white"/>
<path d="M1218.25 210.985H1341.31V245.485H1175.31V45.1104H1218.25V210.985Z" fill="white"/>
<path d="M1400.97 210.985H1524.04V245.485H1358.04V45.1104H1400.97V210.985Z" fill="white"/>
<path d="M1630.32 248.131C1620.99 248.131 1612.09 247.699 1603.61 246.839C1595.12 245.975 1587.19 244.569 1579.82 242.61C1572.45 240.652 1565.74 238.006 1559.67 234.673C1553.6 231.329 1548.26 227.183 1543.67 222.235C1539.09 217.292 1535.35 211.412 1532.46 204.589C1529.59 197.772 1527.66 189.902 1526.69 180.985H1571.27C1571.86 186.876 1573.41 191.923 1575.94 196.131C1578.47 200.329 1581.71 203.798 1585.67 206.548C1589.63 209.287 1594.08 211.444 1599.02 213.027C1603.97 214.61 1609.18 215.735 1614.65 216.402C1620.12 217.058 1625.61 217.381 1631.11 217.381C1638.88 217.381 1646.08 216.792 1652.69 215.61C1659.32 214.417 1665.09 212.548 1670.02 210.006C1674.95 207.454 1678.78 204.11 1681.5 199.985C1684.22 195.85 1685.59 190.834 1685.59 184.944C1685.59 180.152 1684.7 176.209 1682.92 173.11C1681.14 170.001 1678.6 167.522 1675.3 165.673C1672 163.829 1668.04 162.454 1663.4 161.548C1658.76 160.647 1653.56 160.016 1647.8 159.652C1642.03 159.277 1635.83 159.001 1629.19 158.819C1624.4 158.683 1619.34 158.496 1614.02 158.256C1608.7 158.022 1603.27 157.626 1597.73 157.069C1592.19 156.516 1586.71 155.704 1581.3 154.631C1575.89 153.548 1570.72 152.11 1565.77 150.319C1560.83 148.516 1556.24 146.235 1552.02 143.485C1547.8 140.735 1544.13 137.417 1541 133.527C1537.88 129.626 1535.45 125.063 1533.71 119.839C1531.97 114.605 1531.11 108.579 1531.11 101.756C1531.11 93.105 1532.61 85.5008 1535.63 78.9435C1538.64 72.3914 1542.95 66.8081 1548.55 62.1935C1554.15 57.5685 1560.84 53.8081 1568.61 50.9019C1576.37 48.0008 1585.03 45.8706 1594.59 44.506C1604.15 43.1466 1614.37 42.4644 1625.23 42.4644C1645.41 42.4644 1662.69 44.6727 1677.07 49.0894C1691.45 53.506 1702.66 60.1831 1710.69 69.1102C1718.72 78.0425 1723.28 89.2769 1724.38 102.819H1681.63C1680.93 98.0269 1679.45 93.9123 1677.17 90.4644C1674.9 87.006 1672.01 84.105 1668.5 81.756C1664.99 79.3966 1660.97 77.5164 1656.46 76.1102C1651.96 74.6935 1647.08 73.6935 1641.82 73.1102C1636.57 72.5164 1631.11 72.2144 1625.44 72.2144C1619.72 72.2144 1614.27 72.5164 1609.11 73.1102C1603.94 73.6935 1599.21 74.6414 1594.92 75.9435C1590.64 77.2352 1586.93 78.9383 1583.77 81.0477C1580.63 83.1623 1578.2 85.7352 1576.46 88.7769C1574.72 91.8081 1573.86 95.3602 1573.86 99.4435C1573.86 104.027 1574.93 107.772 1577.09 110.673C1579.24 113.579 1582.3 115.855 1586.27 117.506C1590.26 119.147 1594.97 120.376 1600.42 121.194C1605.88 122.001 1611.89 122.589 1618.46 122.964C1625.05 123.339 1632.03 123.704 1639.42 124.048C1645.53 124.371 1651.68 124.792 1657.86 125.319C1664.04 125.85 1670.08 126.621 1675.98 127.631C1681.9 128.631 1687.53 130.027 1692.88 131.819C1698.22 133.6 1703.14 135.917 1707.63 138.777C1712.11 141.626 1716 145.141 1719.3 149.319C1722.59 153.501 1725.13 158.48 1726.94 164.256C1728.74 170.037 1729.65 176.772 1729.65 184.464C1729.65 194.272 1728.09 202.772 1724.96 209.964C1721.84 217.162 1717.36 223.209 1711.52 228.11C1705.7 233.016 1698.72 236.933 1690.57 239.86C1682.41 242.777 1673.25 244.881 1663.09 246.173C1652.93 247.475 1642.01 248.131 1630.32 248.131Z" fill="white"/>
</g>
</g>
<mask id="mask5_316_4491" style="mask-type:luminance" maskUnits="userSpaceOnUse" x="666" y="326" width="1041" height="162">
<path d="M1706.66 326.667H666.664V488H1706.66V326.667Z" fill="white"/>
</mask>
<g mask="url(#mask5_316_4491)">
<path d="M680.203 359.223H715.12C720.354 359.223 725.125 359.921 729.432 361.306C733.734 362.681 737.417 364.635 740.474 367.161C743.542 369.692 745.896 372.78 747.536 376.431C749.188 380.072 750.016 384.197 750.016 388.806V389.077C750.016 394.135 749.036 398.551 747.078 402.327C745.13 406.109 742.495 409.286 739.161 411.869C735.828 414.442 731.938 416.369 727.495 417.661C723.063 418.942 718.354 419.577 713.37 419.577H690.724V452.494H680.203V359.223ZM713.786 409.994C717.604 409.994 721.089 409.51 724.245 408.536C727.396 407.551 730.104 406.15 732.37 404.327C734.63 402.51 736.359 400.359 737.557 397.869C738.75 395.385 739.349 392.588 739.349 389.473V389.202C739.349 382.551 737.063 377.515 732.495 374.098C727.922 370.671 721.859 368.952 714.307 368.952H690.724V409.994H713.786Z" fill="white"/>
<path d="M762.668 359.223H830.085V368.827H773.189V400.661H824.085V410.265H773.189V442.911H830.751V452.494H762.668V359.223Z" fill="white"/>
<path d="M845.398 359.223H885.107C890.44 359.223 895.169 359.963 899.294 361.431C903.419 362.905 906.815 364.926 909.482 367.494C913.482 371.676 915.482 376.65 915.482 382.411V382.681C915.482 385.697 915.055 388.385 914.211 390.744C913.362 393.093 912.232 395.135 910.815 396.869C909.398 398.609 907.82 400.072 906.086 401.265C904.346 402.463 902.549 403.463 900.69 404.265C903.44 405.072 906.034 406.119 908.482 407.411C910.924 408.692 913.034 410.218 914.815 411.994C916.591 413.775 918.008 415.885 919.065 418.327C920.133 420.775 920.669 423.593 920.669 426.786V427.056C920.669 431.046 919.867 434.614 918.273 437.765C916.674 440.921 914.388 443.588 911.419 445.765C908.445 447.947 904.867 449.614 900.69 450.765C896.508 451.921 891.888 452.494 886.836 452.494H845.398V359.223ZM904.815 383.89C904.815 379.265 903.034 375.577 899.482 372.827C895.94 370.077 890.836 368.702 884.169 368.702H855.794V400.806H883.378C889.763 400.806 894.93 399.411 898.878 396.619C902.836 393.817 904.815 389.655 904.815 384.14V383.89ZM910.023 426.119C910.023 421.051 907.93 417.119 903.753 414.327C899.586 411.525 893.409 410.119 885.232 410.119H855.794V443.036H887.107C894.201 443.036 899.794 441.572 903.878 438.64C907.971 435.713 910.023 431.629 910.023 426.39V426.119Z" fill="white"/>
<path d="M1000.48 453.827C993.017 453.827 986.194 452.603 980.017 450.161C973.85 447.718 967.965 443.968 962.371 438.911L968.892 431.181C973.777 435.629 978.71 438.942 983.684 441.119C988.652 443.286 994.382 444.369 1000.87 444.369C1007.17 444.369 1012.21 442.885 1016 439.911C1019.77 436.926 1021.66 433.129 1021.66 428.515V428.244C1021.66 426.119 1021.3 424.192 1020.58 422.452C1019.87 420.718 1018.63 419.14 1016.85 417.723C1015.08 416.306 1012.63 415.025 1009.48 413.869C1006.32 412.702 1002.3 411.593 997.413 410.536C992.079 409.369 987.434 408.036 983.475 406.536C979.527 405.025 976.267 403.202 973.684 401.077C971.111 398.942 969.204 396.452 967.954 393.619C966.715 390.775 966.1 387.442 966.1 383.619V383.348C966.1 379.713 966.85 376.338 968.35 373.223C969.861 370.114 971.996 367.426 974.746 365.161C977.507 362.9 980.751 361.129 984.475 359.848C988.21 358.556 992.298 357.911 996.746 357.911C1003.58 357.911 1009.55 358.869 1014.66 360.786C1019.77 362.692 1024.73 365.551 1029.52 369.369L1023.39 377.494C1019.03 373.942 1014.65 371.364 1010.25 369.765C1005.86 368.171 1001.27 367.369 996.475 367.369C990.35 367.369 985.507 368.817 981.954 371.702C978.397 374.577 976.621 378.15 976.621 382.411V382.681C976.621 384.905 976.975 386.885 977.684 388.619C978.402 390.343 979.694 391.942 981.559 393.411C983.418 394.869 985.986 396.202 989.267 397.411C992.559 398.609 996.777 399.739 1001.93 400.806C1012.32 403.114 1019.98 406.306 1024.91 410.39C1029.84 414.473 1032.31 420.072 1032.31 427.181V427.452C1032.31 431.452 1031.51 435.072 1029.91 438.306C1028.31 441.546 1026.11 444.322 1023.31 446.64C1020.52 448.947 1017.16 450.723 1013.25 451.973C1009.34 453.208 1005.08 453.827 1000.48 453.827Z" fill="white"/>
<path d="M1090.52 454.098C1083.42 454.098 1076.96 452.812 1071.15 450.244C1065.32 447.66 1060.32 444.176 1056.15 439.785C1051.98 435.384 1048.76 430.275 1046.5 424.452C1044.24 418.634 1043.11 412.53 1043.11 406.14V405.869C1043.11 399.468 1044.26 393.338 1046.56 387.473C1048.87 381.614 1052.11 376.489 1056.29 372.098C1060.47 367.697 1065.49 364.192 1071.36 361.577C1077.21 358.952 1083.69 357.64 1090.79 357.64C1097.9 357.64 1104.37 358.931 1110.19 361.515C1116.01 364.088 1121 367.572 1125.17 371.973C1129.35 376.364 1132.57 381.468 1134.83 387.285C1137.1 393.108 1138.23 399.213 1138.23 405.598V405.869C1138.23 412.259 1137.07 418.384 1134.75 424.244C1132.44 430.108 1129.2 435.239 1125.02 439.64C1120.86 444.03 1115.84 447.535 1109.98 450.16C1104.12 452.785 1097.63 454.098 1090.52 454.098ZM1090.79 444.369C1096.13 444.369 1101.03 443.369 1105.52 441.369C1110.01 439.369 1113.85 436.64 1117.04 433.181C1120.24 429.713 1122.74 425.671 1124.56 421.056C1126.4 416.431 1127.31 411.463 1127.31 406.14V405.869C1127.31 400.535 1126.4 395.546 1124.56 390.89C1122.74 386.223 1120.19 382.16 1116.9 378.702C1113.62 375.233 1109.74 372.473 1105.25 370.431C1100.76 368.39 1095.86 367.369 1090.52 367.369C1085.2 367.369 1080.3 368.369 1075.81 370.369C1071.32 372.358 1067.48 375.088 1064.27 378.556C1061.07 382.015 1058.57 386.056 1056.75 390.681C1054.93 395.296 1054.02 400.265 1054.02 405.598V405.869C1054.02 411.192 1054.93 416.181 1056.75 420.848C1058.57 425.515 1061.13 429.588 1064.42 433.056C1067.71 436.515 1071.6 439.265 1076.08 441.306C1080.57 443.348 1085.47 444.369 1090.79 444.369Z" fill="white"/>
<path d="M1153.95 359.223H1164.47V442.765H1216.97V452.494H1153.95V359.223Z" fill="white"/>
<path d="M1264.53 453.952C1258.75 453.952 1253.49 453.088 1248.74 451.369C1243.99 449.635 1239.89 447.056 1236.47 443.64C1233.05 440.223 1230.41 435.984 1228.55 430.911C1226.68 425.843 1225.76 420.025 1225.76 413.452V359.223H1236.28V412.786C1236.28 422.911 1238.78 430.692 1243.8 436.119C1248.83 441.536 1255.82 444.244 1264.78 444.244C1273.4 444.244 1280.24 441.671 1285.3 436.515C1290.37 431.364 1292.9 423.676 1292.9 413.452V359.223H1303.42V412.661C1303.42 419.494 1302.49 425.489 1300.61 430.64C1298.75 435.796 1296.11 440.109 1292.7 443.577C1289.28 447.036 1285.2 449.635 1280.45 451.369C1275.7 453.088 1270.39 453.952 1264.53 453.952Z" fill="white"/>
<path d="M1346.05 368.952H1314.62V359.223H1388.01V368.952H1356.58V452.494H1346.05V368.952Z" fill="white"/>
<path d="M1401.61 359.223H1412.13V452.494H1401.61V359.223Z" fill="white"/>
<path d="M1476.2 454.098C1469.1 454.098 1462.64 452.812 1456.83 450.244C1451 447.66 1446 444.176 1441.83 439.785C1437.66 435.384 1434.44 430.275 1432.18 424.452C1429.92 418.634 1428.79 412.53 1428.79 406.14V405.869C1428.79 399.468 1429.94 393.338 1432.24 387.473C1434.55 381.614 1437.79 376.489 1441.97 372.098C1446.15 367.697 1451.17 364.192 1457.04 361.577C1462.89 358.952 1469.37 357.64 1476.47 357.64C1483.58 357.64 1490.05 358.931 1495.87 361.515C1501.69 364.088 1506.68 367.572 1510.85 371.973C1515.02 376.364 1518.25 381.468 1520.51 387.285C1522.77 393.108 1523.91 399.213 1523.91 405.598V405.869C1523.91 412.259 1522.75 418.384 1520.43 424.244C1518.12 430.108 1514.88 435.239 1510.7 439.64C1506.54 444.03 1501.52 447.535 1495.66 450.16C1489.8 452.785 1483.31 454.098 1476.2 454.098ZM1476.47 444.369C1481.81 444.369 1486.71 443.369 1491.2 441.369C1495.69 439.369 1499.52 436.64 1502.72 433.181C1505.92 429.713 1508.42 425.671 1510.24 421.056C1512.08 416.431 1512.99 411.463 1512.99 406.14V405.869C1512.99 400.535 1512.08 395.546 1510.24 390.89C1508.42 386.223 1505.87 382.16 1502.58 378.702C1499.3 375.233 1495.42 372.473 1490.93 370.431C1486.44 368.39 1481.54 367.369 1476.2 367.369C1470.88 367.369 1465.98 368.369 1461.49 370.369C1457 372.358 1453.16 375.088 1449.95 378.556C1446.75 382.015 1444.25 386.056 1442.43 390.681C1440.61 395.296 1439.7 400.265 1439.7 405.598V405.869C1439.7 411.192 1440.61 416.181 1442.43 420.848C1444.25 425.515 1446.81 429.588 1450.1 433.056C1453.39 436.515 1457.27 439.265 1461.76 441.306C1466.25 443.348 1471.15 444.369 1476.47 444.369Z" fill="white"/>
<path d="M1539.62 359.223H1549.48L1608.25 433.973V359.223H1618.5V452.494H1610.1L1549.9 376.015V452.494H1539.62V359.223Z" fill="white"/>
<path d="M1670.32 453.827C1662.86 453.827 1656.04 452.603 1649.86 450.161C1643.7 447.718 1637.81 443.968 1632.22 438.911L1638.74 431.181C1643.62 435.629 1648.56 438.942 1653.53 441.119C1658.5 443.286 1664.23 444.369 1670.72 444.369C1677.02 444.369 1682.06 442.885 1685.84 439.911C1689.62 436.926 1691.51 433.129 1691.51 428.515V428.244C1691.51 426.119 1691.15 424.192 1690.43 422.452C1689.72 420.718 1688.47 419.14 1686.7 417.723C1684.93 416.306 1682.47 415.025 1679.32 413.869C1676.17 412.702 1672.15 411.593 1667.26 410.536C1661.93 409.369 1657.28 408.036 1653.32 406.536C1649.37 405.025 1646.11 403.202 1643.53 401.077C1640.96 398.942 1639.05 396.452 1637.8 393.619C1636.56 390.775 1635.95 387.442 1635.95 383.619V383.348C1635.95 379.713 1636.7 376.338 1638.2 373.223C1639.71 370.114 1641.84 367.426 1644.59 365.161C1647.35 362.9 1650.6 361.129 1654.32 359.848C1658.06 358.556 1662.15 357.911 1666.59 357.911C1673.43 357.911 1679.4 358.869 1684.51 360.786C1689.62 362.692 1694.57 365.551 1699.36 369.369L1693.24 377.494C1688.88 373.942 1684.49 371.364 1680.09 369.765C1675.7 368.171 1671.11 367.369 1666.32 367.369C1660.2 367.369 1655.35 368.817 1651.8 371.702C1648.24 374.577 1646.47 378.15 1646.47 382.411V382.681C1646.47 384.905 1646.82 386.885 1647.53 388.619C1648.25 390.343 1649.54 391.942 1651.41 393.411C1653.27 394.869 1655.83 396.202 1659.11 397.411C1662.41 398.609 1666.63 399.739 1671.78 400.806C1682.17 403.114 1689.83 406.306 1694.76 410.39C1699.69 414.473 1702.16 420.072 1702.16 427.181V427.452C1702.16 431.452 1701.35 435.072 1699.76 438.306C1698.16 441.546 1695.96 444.322 1693.16 446.64C1690.36 448.947 1687.01 450.723 1683.09 451.973C1679.19 453.208 1674.93 453.827 1670.32 453.827Z" fill="white"/>
</g>
<mask id="mask6_316_4491" style="mask-type:luminance" maskUnits="userSpaceOnUse" x="0" y="5" width="161" height="122">
<path d="M0.816406 5.36987H160.16V126.886H0.816406V5.36987Z" fill="white"/>
</mask>
<g mask="url(#mask6_316_4491)">
<mask id="mask7_316_4491" style="mask-type:luminance" maskUnits="userSpaceOnUse" x="0" y="5" width="162" height="124">
<path d="M161.333 5.3335H0V128H161.333V5.3335Z" fill="white"/>
</mask>
<g mask="url(#mask7_316_4491)">
<mask id="mask8_316_4491" style="mask-type:luminance" maskUnits="userSpaceOnUse" x="0" y="5" width="161" height="122">
<path d="M0.816406 5.36987H160.16V126.886H0.816406V5.36987Z" fill="white"/>
</mask>
<g mask="url(#mask8_316_4491)">
<path d="M0.816406 5.36987H160.301V126.886H0.816406V5.36987Z" fill="#008FDC"/>
</g>
</g>
</g>
</g>
</svg>
