<svg width="28" height="29" viewBox="0 0 28 29" fill="none" xmlns="http://www.w3.org/2000/svg">
<path d="M1.55281 29V24.2988H6.36652L2.40686 11.2138C1.70809 10.822 1.13226 10.2474 0.679355 9.48999C0.226452 8.73257 0 7.92292 0 7.06103C0 5.75514 0.452903 4.64513 1.35871 3.73101C2.26452 2.81688 3.36442 2.35982 4.65843 2.35982C5.66776 2.35982 6.5671 2.65365 7.35644 3.2413C8.14579 3.82895 8.69574 4.57984 9.0063 5.49396H13.9753V3.92689C13.9753 3.48289 14.1241 3.11071 14.4217 2.81035C14.7194 2.51 15.0881 2.35982 15.5281 2.35982C15.761 2.35982 15.9875 2.41206 16.2075 2.51653C16.4274 2.621 16.6151 2.77771 16.7704 2.98665L19.4101 0.479339C19.6431 0.244278 19.9213 0.094101 20.2448 0.0288064C20.5683 -0.0364881 20.8853 0.00921805 21.1959 0.165925L27.2518 2.98665C27.5624 3.14336 27.7759 3.37189 27.8924 3.67224C28.0088 3.9726 28.0024 4.26642 27.873 4.55372C27.7177 4.86713 27.4912 5.06955 27.1936 5.16096C26.896 5.25237 26.6048 5.23278 26.3201 5.10219L20.73 2.51653L17.0809 5.96408V8.15798L20.73 11.5272L26.3201 8.94151C26.6048 8.81092 26.9024 8.79786 27.213 8.90234C27.5236 9.00681 27.7436 9.20269 27.873 9.48999C28.0282 9.8034 28.0412 10.1038 27.9118 10.3911C27.7824 10.6783 27.5624 10.9003 27.2518 11.0571L21.1959 13.9561C20.8853 14.1128 20.5683 14.1585 20.2448 14.0933C19.9213 14.028 19.6431 13.8778 19.4101 13.6427L16.7704 11.1354C16.6151 11.2921 16.4274 11.4358 16.2075 11.5664C15.9875 11.6969 15.761 11.7622 15.5281 11.7622C15.0881 11.7622 14.7194 11.6121 14.4217 11.3117C14.1241 11.0114 13.9753 10.6392 13.9753 10.1952V8.6281H9.0063C8.92866 8.83704 8.84455 9.03293 8.75397 9.21575C8.66339 9.39857 8.54046 9.59446 8.38518 9.8034L16.1492 24.2988H21.7393V29H1.55281ZM4.65843 8.6281C5.09839 8.6281 5.46719 8.47792 5.76481 8.17757C6.06243 7.87721 6.21124 7.50503 6.21124 7.06103C6.21124 6.61703 6.06243 6.24485 5.76481 5.94449C5.46719 5.64414 5.09839 5.49396 4.65843 5.49396C4.21847 5.49396 3.84968 5.64414 3.55205 5.94449C3.25443 6.24485 3.10562 6.61703 3.10562 7.06103C3.10562 7.50503 3.25443 7.87721 3.55205 8.17757C3.84968 8.47792 4.21847 8.6281 4.65843 8.6281ZM9.54979 24.2988H12.5778L5.90068 11.7622C5.90068 11.7622 5.8748 11.7622 5.82304 11.7622C5.77128 11.7622 5.7454 11.7622 5.7454 11.7622L9.54979 24.2988Z" fill="#008FDC" fill-opacity="0.9"/>
</svg>
