<svg width="27" height="26" viewBox="0 0 27 26" fill="none" xmlns="http://www.w3.org/2000/svg">
<path d="M23.9028 26L15.9231 18.1026L18.9838 15.0735L26.9636 22.9709L23.9028 26ZM3.78947 26L0.728745 22.9709L10.7854 13.018L8.30769 10.5659L7.28745 11.5756L5.42915 9.73648V12.6935L4.40891 13.7032L0 9.33981L1.02024 8.3301H4.0081L2.18623 6.52705L7.36032 1.40638C7.84615 0.925566 8.36842 0.576976 8.92713 0.36061C9.48583 0.144244 10.0567 0.036061 10.6397 0.036061C11.2227 0.036061 11.7935 0.144244 12.3522 0.36061C12.9109 0.576976 13.4332 0.925566 13.919 1.40638L10.5668 4.72399L12.3887 6.52705L11.3684 7.53675L13.8462 9.9889L17.1255 6.74341C17.0283 6.47896 16.9494 6.2025 16.8887 5.91401C16.8279 5.62552 16.7976 5.33703 16.7976 5.04854C16.7976 3.63014 17.2895 2.43412 18.2733 1.46047C19.2571 0.486824 20.4656 0 21.8988 0C22.2632 0 22.6093 0.036061 22.9372 0.108183C23.2652 0.180305 23.5992 0.288488 23.9393 0.432732L20.332 4.00277L22.9555 6.59917L26.5628 3.02913C26.7328 3.3657 26.8482 3.69626 26.9089 4.0208C26.9696 4.34535 27 4.68793 27 5.04854C27 6.46694 26.5081 7.66297 25.5243 8.63662C24.5405 9.61026 23.332 10.0971 21.8988 10.0971C21.6073 10.0971 21.3158 10.073 21.0243 10.025C20.7328 9.97688 20.4534 9.89274 20.1862 9.77254L3.78947 26Z" fill="#008FDC" fill-opacity="0.9"/>
</svg>
