<svg width="1145" height="175" viewBox="0 0 1145 175" fill="none" xmlns="http://www.w3.org/2000/svg">
<path d="M0.000156164 171.36V3.35985H31.6802V171.36H0.000156164ZM63.2814 171.36V3.35985H123.521L156.881 149.76H161.201V3.35985H192.401V171.36H132.161L98.8014 24.9599H94.4814V171.36H63.2814ZM262.943 171.36V32.1599H213.983V3.35985H343.583V32.1599H294.623V171.36H262.943ZM365.156 171.36V3.35985H473.156V32.1599H396.836V72.2399H466.436V101.04H396.836V142.56H474.596V171.36H365.156ZM556.127 174.72C544.607 174.72 534.127 172.16 524.687 167.04C515.407 161.76 507.967 154.16 502.367 144.24C496.927 134.16 494.207 121.92 494.207 107.52V67.1999C494.207 45.5999 500.287 29.0399 512.447 17.5199C524.607 5.83985 541.087 -0.00014782 561.887 -0.00014782C582.527 -0.00014782 598.447 5.51985 609.647 16.5599C621.007 27.4399 626.687 42.2399 626.687 60.9599V61.9199H595.487V59.9999C595.487 54.0799 594.207 48.7199 591.647 43.9199C589.247 39.1199 585.567 35.3599 580.607 32.6399C575.647 29.7599 569.407 28.3199 561.887 28.3199C550.687 28.3199 541.887 31.7599 535.487 38.6399C529.087 45.5199 525.887 54.8799 525.887 66.7199V108C525.887 119.68 529.087 129.12 535.487 136.32C541.887 143.36 550.847 146.88 562.367 146.88C573.887 146.88 582.287 143.84 587.567 137.76C592.847 131.68 595.487 124 595.487 114.72V112.32H555.647V85.4399H626.687V171.36H597.407V155.28H593.087C591.967 158 590.127 160.88 587.567 163.92C585.167 166.96 581.487 169.52 576.527 171.6C571.567 173.68 564.767 174.72 556.127 174.72ZM656.953 171.36V3.35985H729.913C740.473 3.35985 749.673 5.19985 757.513 8.87985C765.353 12.5599 771.433 17.7599 775.753 24.4799C780.073 31.1999 782.233 39.1199 782.233 48.2399V51.1199C782.233 61.1999 779.833 69.3599 775.033 75.5999C770.233 81.8399 764.313 86.3999 757.273 89.2799V93.5999C763.673 93.9199 768.633 96.1599 772.153 100.32C775.673 104.32 777.433 109.68 777.433 116.4V171.36H745.753V120.96C745.753 117.12 744.713 114 742.633 111.6C740.713 109.2 737.433 108 732.793 108H688.633V171.36H656.953ZM688.633 79.1999H726.553C734.073 79.1999 739.913 77.1999 744.073 73.1999C748.393 69.0399 750.553 63.5999 750.553 56.8799V54.4799C750.553 47.7599 748.473 42.3999 744.313 38.3999C740.153 34.2399 734.233 32.1599 726.553 32.1599H688.633V79.1999ZM808.594 171.36V3.35985H840.274V171.36H808.594ZM910.755 171.36V32.1599H861.795V3.35985H991.395V32.1599H942.435V171.36H910.755ZM1056.17 171.36V113.52L999.049 3.35985H1034.33L1069.85 75.3599H1074.17L1109.69 3.35985H1144.97L1087.85 113.52V171.36H1056.17Z" fill="white" fill-opacity="0.03"/>
</svg>
